<svg width="92" height="88" viewBox="0 0 92 88" fill="none" xmlns="http://www.w3.org/2000/svg" xmlns:xlink="http://www.w3.org/1999/xlink">
<path d="M84.333,11L61.333,11L61.333,27.5L30.667,27.5L30.667,11L7.667,11C3.434,11 0,14.695 0,19.25L0,79.75C0,84.305 3.434,88 7.667,88L84.333,88C88.566,88 92,84.305 92,79.75L92,19.25C92,14.695 88.566,11 84.333,11ZM46,38.5C51.638,38.5 56.222,43.433 56.222,49.5C56.222,55.567 51.638,60.5 46,60.5C40.362,60.5 35.778,55.567 35.778,49.5C35.778,43.433 40.362,38.5 46,38.5ZM60.902,77L31.098,77C29.437,77 28.095,75.281 28.606,73.597C29.932,69.197 33.781,66 38.333,66L39.643,66C41.608,66.877 43.748,67.375 46,67.375C48.252,67.375 50.408,66.877 52.357,66L53.667,66C58.203,66 62.052,69.18 63.394,73.597C63.905,75.281 62.563,77 60.902,77ZM56.222,5.5C56.222,2.458 53.938,0 51.111,0L40.889,0C38.062,0 35.778,2.458 35.778,5.5L35.778,22L56.222,22L56.222,5.5Z" fill="#F16622"/>
</svg>
