<svg width="88" height="88" viewBox="0 0 88 88" fill="none" xmlns="http://www.w3.org/2000/svg" xmlns:xlink="http://www.w3.org/1999/xlink">
<path d="M9.887,9.887C10.034,9.742 10.207,9.626 10.398,9.547C10.589,9.469 10.793,9.428 11,9.429L20.429,9.429C21.679,9.429 22.878,8.932 23.762,8.048C24.646,7.164 25.143,5.965 25.143,4.714C25.143,3.464 24.646,2.265 23.762,1.381C22.878,0.497 21.679,0 20.429,0L11,0C8.083,0 5.285,1.159 3.222,3.222C1.159,5.285 0,8.083 0,11L0,20.429C0,21.679 0.497,22.878 1.381,23.762C2.265,24.646 3.464,25.143 4.714,25.143C5.965,25.143 7.164,24.646 8.048,23.762C8.932,22.878 9.429,21.679 9.429,20.429L9.429,11C9.428,10.794 9.469,10.589 9.547,10.398C9.626,10.207 9.742,10.034 9.887,9.887ZM88,67.571C88,66.321 87.503,65.122 86.619,64.238C85.735,63.354 84.536,62.857 83.286,62.857C82.035,62.857 80.836,63.354 79.952,64.238C79.068,65.122 78.571,66.321 78.571,67.571L78.571,77C78.571,77.417 78.406,77.816 78.111,78.111C77.816,78.406 77.417,78.571 77,78.571L67.571,78.571C66.321,78.571 65.122,79.068 64.238,79.952C63.354,80.836 62.857,82.035 62.857,83.286C62.857,84.536 63.354,85.735 64.238,86.619C65.122,87.503 66.321,88 67.571,88L77,88C79.917,88 82.715,86.841 84.778,84.778C86.841,82.715 88,79.917 88,77L88,67.571ZM4.714,62.857C5.965,62.857 7.164,63.354 8.048,64.238C8.932,65.122 9.429,66.321 9.429,67.571L9.429,77C9.429,77.417 9.594,77.816 9.889,78.111C10.184,78.406 10.583,78.571 11,78.571L20.429,78.571C21.679,78.571 22.878,79.068 23.762,79.952C24.646,80.836 25.143,82.035 25.143,83.286C25.143,84.536 24.646,85.735 23.762,86.619C22.878,87.503 21.679,88 20.429,88L11,88C8.083,88 5.285,86.841 3.222,84.778C1.159,82.715 0,79.917 0,77L0,67.571C0,66.321 0.497,65.122 1.381,64.238C2.265,63.354 3.464,62.857 4.714,62.857ZM67.571,0C66.321,0 65.122,0.497 64.238,1.381C63.354,2.265 62.857,3.464 62.857,4.714C62.857,5.965 63.354,7.164 64.238,8.048C65.122,8.932 66.321,9.429 67.571,9.429L77,9.429C77.417,9.429 77.816,9.594 78.111,9.889C78.406,10.184 78.571,10.583 78.571,11L78.571,20.429C78.571,21.679 79.068,22.878 79.952,23.762C80.836,24.646 82.035,25.143 83.286,25.143C84.536,25.143 85.735,24.646 86.619,23.762C87.503,22.878 88,21.679 88,20.429L88,11C88,8.083 86.841,5.285 84.778,3.222C82.715,1.159 79.917,0 77,0L67.571,0ZM44,48.878C38.33,48.877 32.795,50.611 28.139,53.845C23.482,57.08 19.925,61.661 17.946,66.974C17.242,68.854 18.744,70.714 20.749,70.714L67.238,70.714C69.25,70.714 70.746,68.854 70.048,66.974C68.069,61.661 64.512,57.08 59.855,53.845C55.198,50.611 49.67,48.877 44,48.878ZM57.879,28.041C57.879,31.726 56.415,35.26 53.809,37.866C51.203,40.471 47.669,41.935 43.984,41.935C40.299,41.935 36.765,40.471 34.159,37.866C31.554,35.26 30.09,31.726 30.09,28.041C30.09,24.356 31.554,20.821 34.159,18.216C36.765,15.61 40.299,14.146 43.984,14.146C47.669,14.146 51.203,15.61 53.809,18.216C56.415,20.821 57.879,24.356 57.879,28.041Z" clip-rule="evenodd" fill-rule="evenodd" fill="#F16622"/>
</svg>
