<svg width="60" height="88" viewBox="0 0 60 88" fill="none" xmlns="http://www.w3.org/2000/svg" xmlns:xlink="http://www.w3.org/1999/xlink">
<path d="M0,11C0,8.083 1.264,5.285 3.515,3.222C5.765,1.159 8.817,0 12,0L48,0C51.183,0 54.235,1.159 56.485,3.222C58.736,5.285 60,8.083 60,11L60,77C60,79.917 58.736,82.715 56.485,84.778C54.235,86.841 51.183,88 48,88L12,88C8.817,88 5.765,86.841 3.515,84.778C1.264,82.715 0,79.917 0,77L0,11ZM36,71.5C36,70.041 35.368,68.642 34.243,67.611C33.117,66.579 31.591,66 30,66C28.409,66 26.883,66.579 25.757,67.611C24.632,68.642 24,70.041 24,71.5C24,72.959 24.632,74.358 25.757,75.389C26.883,76.421 28.409,77 30,77C31.591,77 33.117,76.421 34.243,75.389C35.368,74.358 36,72.959 36,71.5Z" fill="#F16622"/>
</svg>
