<svg width="66" height="88" viewBox="0 0 66 88" fill="none" xmlns="http://www.w3.org/2000/svg" xmlns:xlink="http://www.w3.org/1999/xlink">
<path d="M33,67.048C35.188,67.048 37.286,66.165 38.834,64.593C40.381,63.021 41.25,60.889 41.25,58.667C41.25,56.444 40.381,54.312 38.834,52.74C37.286,51.169 35.188,50.286 33,50.286C30.812,50.286 28.714,51.169 27.166,52.74C25.619,54.312 24.75,56.444 24.75,58.667C24.75,60.889 25.619,63.021 27.166,64.593C28.714,66.165 30.812,67.048 33,67.048ZM57.75,29.333C59.938,29.333 62.036,30.216 63.584,31.788C65.131,33.36 66,35.492 66,37.714L66,79.619C66,81.842 65.131,83.974 63.584,85.545C62.036,87.117 59.938,88 57.75,88L8.25,88C6.062,88 3.964,87.117 2.416,85.545C0.869,83.974 0,81.842 0,79.619L0,37.714C0,35.492 0.869,33.36 2.416,31.788C3.964,30.216 6.062,29.333 8.25,29.333L12.375,29.333L12.375,20.952C12.375,15.395 14.548,10.066 18.416,6.137C22.284,2.207 27.53,0 33,0C35.709,0 38.391,0.542 40.893,1.595C43.395,2.648 45.669,4.191 47.584,6.137C49.499,8.082 51.019,10.392 52.055,12.934C53.092,15.476 53.625,18.201 53.625,20.952L53.625,29.333L57.75,29.333ZM33,8.381C29.718,8.381 26.57,9.705 24.25,12.063C21.929,14.421 20.625,17.618 20.625,20.952L20.625,29.333L45.375,29.333L45.375,20.952C45.375,17.618 44.071,14.421 41.75,12.063C39.43,9.705 36.282,8.381 33,8.381Z" fill="#F16622"/>
</svg>
