<svg width="30" height="24" viewBox="0 0 30 24" fill="none" xmlns="http://www.w3.org/2000/svg" xmlns:xlink="http://www.w3.org/1999/xlink">
<path d="M14.661,5.217C19.093,5.217 23.356,6.92 26.567,9.973C26.809,10.209 27.196,10.206 27.434,9.967L29.746,7.633C29.867,7.512 29.934,7.347 29.933,7.176C29.932,7.005 29.863,6.841 29.741,6.721C21.311,-1.358 8.011,-1.358 -0.419,6.721C-0.541,6.841 -0.611,7.005 -0.612,7.176C-0.613,7.347 -0.546,7.512 -0.425,7.633L1.887,9.967C2.125,10.207 2.512,10.21 2.754,9.973C5.966,6.92 10.229,5.217 14.661,5.217ZM14.661,12.808C17.096,12.808 19.444,13.713 21.249,15.347C21.494,15.579 21.878,15.574 22.116,15.336L24.425,13.003C24.547,12.88 24.615,12.714 24.613,12.542C24.611,12.369 24.54,12.205 24.416,12.085C18.92,6.972 10.408,6.972 4.911,12.085C4.787,12.205 4.716,12.369 4.715,12.542C4.713,12.715 4.781,12.881 4.903,13.003L7.211,15.336C7.449,15.574 7.834,15.579 8.078,15.347C9.882,13.714 12.228,12.809 14.661,12.808ZM19.287,17.916C19.291,18.089 19.223,18.256 19.099,18.377L15.105,22.408C14.988,22.527 14.828,22.593 14.661,22.593C14.495,22.593 14.335,22.527 14.218,22.408L10.223,18.377C10.099,18.255 10.031,18.089 10.035,17.916C10.039,17.743 10.114,17.579 10.242,17.463C12.793,15.305 16.53,15.305 19.081,17.463C19.209,17.579 19.284,17.743 19.287,17.916Z" clip-rule="evenodd" fill-rule="evenodd" fill="#111111"/>
</svg>
